<svg width="32" height="31" viewBox="0 0 32 31" fill="none" xmlns="http://www.w3.org/2000/svg">
<path d="M16.1388 4.03904C19.8741 4.03904 20.3126 4.05569 21.7889 4.12229C23.1543 4.18335 23.8923 4.4109 24.3864 4.60516C25.0413 4.86047 25.5074 5.16017 25.9959 5.64858C26.4843 6.137 26.7895 6.60321 27.0394 7.25812C27.2281 7.75208 27.4611 8.49025 27.5222 9.85558C27.5888 11.3319 27.6055 11.7704 27.6055 15.5056C27.6055 19.2409 27.5888 19.6793 27.5222 21.1557C27.4611 22.5209 27.2336 23.2591 27.0394 23.7531C26.784 24.4081 26.4843 24.8742 25.9959 25.3626C25.5074 25.851 25.0413 26.1563 24.3864 26.406C23.8923 26.5947 23.1543 26.8279 21.7889 26.889C20.3126 26.9555 19.8741 26.9722 16.1388 26.9722C12.4036 26.9722 11.9652 26.9555 10.4888 26.889C9.1235 26.8279 8.38532 26.6003 7.89136 26.406C7.23645 26.1508 6.77024 25.851 6.28183 25.3626C5.79341 24.8742 5.48815 24.4081 5.2384 23.7531C5.0497 23.2591 4.81659 22.5209 4.75555 21.1557C4.68893 19.6793 4.67228 19.2409 4.67228 15.5056C4.67228 11.7704 4.68893 11.3319 4.75555 9.85558C4.81659 8.49025 5.04414 7.75208 5.2384 7.25812C5.49371 6.60321 5.79341 6.137 6.28183 5.64858C6.77024 5.16017 7.23645 4.85491 7.89136 4.60516C8.38532 4.41646 9.1235 4.18335 10.4888 4.12229C11.9652 4.05014 12.4036 4.03904 16.1388 4.03904ZM16.1388 1.51929C12.3426 1.51929 11.8653 1.53594 10.3723 1.60254C8.88484 1.66913 7.86916 1.90779 6.98114 2.25189C6.05982 2.6071 5.2828 3.08997 4.50579 3.86699C3.72876 4.64401 3.25145 5.42658 2.8907 6.34235C2.54659 7.23037 2.30793 8.24604 2.24133 9.73903C2.17473 11.2265 2.15808 11.7038 2.15808 15.5001C2.15808 19.2963 2.17473 19.7737 2.24133 21.2666C2.30793 22.7541 2.54659 23.7697 2.8907 24.6633C3.24591 25.5847 3.72876 26.3617 4.50579 27.1387C5.2828 27.9157 6.06537 28.393 6.98114 28.7538C7.86916 29.0979 8.88484 29.3366 10.3778 29.4031C11.8708 29.4697 12.3426 29.4864 16.1444 29.4864C19.9463 29.4864 20.418 29.4697 21.911 29.4031C23.3984 29.3366 24.414 29.0979 25.3076 28.7538C26.229 28.3986 27.006 27.9157 27.7831 27.1387C28.56 26.3617 29.0373 25.5791 29.3981 24.6633C29.7422 23.7753 29.9809 22.7596 30.0475 21.2666C30.114 19.7737 30.1307 19.3019 30.1307 15.5001C30.1307 11.6982 30.114 11.2265 30.0475 9.73347C29.9809 8.24604 29.7422 7.23037 29.3981 6.3368C29.0429 5.41547 28.56 4.63846 27.7831 3.86144C27.006 3.08443 26.2234 2.6071 25.3076 2.24635C24.4196 1.90224 23.404 1.66359 21.911 1.59698C20.4125 1.53594 19.9352 1.51929 16.1388 1.51929Z" fill="black"/>
<path d="M16.1411 8.31836C12.1783 8.31836 8.9592 11.5319 8.9592 15.5003C8.9592 19.4685 12.1783 22.6821 16.1411 22.6821C20.1039 22.6821 23.323 19.463 23.323 15.5003C23.323 11.5374 20.1039 8.31836 16.1411 8.31836ZM16.1411 20.1624C13.5659 20.1624 11.479 18.0755 11.479 15.5003C11.479 12.9249 13.5659 10.8381 16.1411 10.8381C18.7164 10.8381 20.8032 12.9249 20.8032 15.5003C20.8032 18.0755 18.7164 20.1624 16.1411 20.1624Z" fill="black"/>
<path d="M23.6025 9.71116C24.5282 9.71116 25.2786 8.96073 25.2786 8.03502C25.2786 7.10932 24.5282 6.35889 23.6025 6.35889C22.6768 6.35889 21.9263 7.10932 21.9263 8.03502C21.9263 8.96073 22.6768 9.71116 23.6025 9.71116Z" fill="black"/>
</svg>