<svg width="27" height="27" viewBox="0 0 27 27" fill="none" xmlns="http://www.w3.org/2000/svg">
<g clip-path="url(#clip0)">
<path d="M22.8737 26.4166H4.79037C2.59454 26.4166 0.915375 24.7374 0.915375 22.5416V4.45825C0.915375 2.26242 2.59454 0.583252 4.79037 0.583252H22.8737C25.0695 0.583252 26.7487 2.26242 26.7487 4.45825V22.5416C26.7487 24.7374 25.0695 26.4166 22.8737 26.4166ZM8.53621 10.2708H4.79037V22.5416H8.66538V10.2708H8.53621ZM8.92371 6.39575C8.92371 5.23325 7.89038 4.19992 6.72788 4.19992C5.43621 4.19992 4.53204 5.23325 4.53204 6.39575C4.53204 7.55825 5.56537 8.59159 6.72788 8.59159C7.89038 8.59159 8.92371 7.55825 8.92371 6.39575ZM22.8737 15.8249C22.8737 12.4666 22.0987 10.0124 18.2237 10.0124C16.4154 10.0124 15.1237 11.0458 14.607 11.9499V10.2708H10.9904V22.5416H14.8654V16.4708C14.8654 14.9208 15.1237 13.2416 17.1904 13.2416C19.1279 13.2416 19.1279 15.0499 19.1279 16.4708V22.5416H22.8737V15.8249Z" fill="black"/>
</g>
<defs>
<clipPath id="clip0">
<rect width="25.8333" height="25.8333" fill="white" transform="translate(0.916687 0.583252)"/>
</clipPath>
</defs>
</svg>
