<svg width="32" height="31" viewBox="0 0 32 31" fill="none" xmlns="http://www.w3.org/2000/svg">
<path d="M10.3843 27.3101C21.3513 27.3101 27.3498 18.224 27.3498 10.3446C27.3498 10.0865 27.3498 9.8296 27.3324 9.57384C28.4993 8.72977 29.5066 7.68464 30.3072 6.48741C29.219 6.96961 28.0645 7.28584 26.8825 7.42555C28.1273 6.68036 29.0588 5.50831 29.5039 4.12753C28.3334 4.82207 27.053 5.31155 25.7177 5.57485C24.8187 4.6189 23.6297 3.9859 22.3347 3.7738C21.0396 3.56169 19.7108 3.78231 18.5538 4.40151C17.3969 5.02071 16.4762 6.00396 15.9343 7.19913C15.3925 8.3943 15.2596 9.73474 15.5563 11.013C13.1856 10.8942 10.8665 10.2781 8.74941 9.20485C6.6323 8.13158 4.76458 6.6251 3.26747 4.78318C2.50497 6.09583 2.27144 7.64974 2.61442 9.12853C2.95738 10.6073 3.85107 11.8998 5.11352 12.7428C4.16462 12.7147 3.23641 12.4587 2.40722 11.9965C2.40722 12.0209 2.40722 12.0465 2.40722 12.0721C2.40759 13.4487 2.88416 14.7828 3.75604 15.8482C4.62794 16.9136 5.84152 17.6445 7.19091 17.9171C6.31307 18.1565 5.39203 18.1915 4.49856 18.0194C4.87957 19.2042 5.62138 20.2402 6.6202 20.9827C7.61903 21.7251 8.82493 22.1368 10.0693 22.1602C7.95785 23.8196 5.34957 24.7204 2.66413 24.7177C2.18972 24.7168 1.71577 24.6881 1.24472 24.6317C3.97152 26.3816 7.1443 27.3098 10.3843 27.3054" fill="black"/>
</svg>